<svg width="16" height="16" viewBox="0 0 16 16" fill="none" xmlns="http://www.w3.org/2000/svg">
<path d="M8 0L14.9282 4V12L8 16L1.0718 12V4L8 0Z" fill="#C1375A"/>
<mask id="path-2-inside-1_1198_1745" fill="white">
<path d="M12 8C12 10.2091 10.2091 12 8 12C5.79086 12 4 10.2091 4 8C4 5.79086 5.79086 4 8 4C10.2091 4 12 5.79086 12 8ZM5.4359 8C5.4359 9.41611 6.58389 10.5641 8 10.5641C9.41611 10.5641 10.5641 9.41611 10.5641 8C10.5641 6.58389 9.41611 5.4359 8 5.4359C6.58389 5.4359 5.4359 6.58389 5.4359 8Z"/>
</mask>
<path d="M12 8C12 10.2091 10.2091 12 8 12C5.79086 12 4 10.2091 4 8C4 5.79086 5.79086 4 8 4C10.2091 4 12 5.79086 12 8ZM5.4359 8C5.4359 9.41611 6.58389 10.5641 8 10.5641C9.41611 10.5641 10.5641 9.41611 10.5641 8C10.5641 6.58389 9.41611 5.4359 8 5.4359C6.58389 5.4359 5.4359 6.58389 5.4359 8Z" fill="#F0EBF8" stroke="#F0EBF8" stroke-width="2" mask="url(#path-2-inside-1_1198_1745)"/>
<rect x="4" y="11.0711" width="10" height="1" transform="rotate(-45 4 11.0711)" fill="#F0EBF8"/>
</svg>
